# Blender v3.1.2 OBJ File: 'terrain.blend'
# www.blender.org
mtllib ground.mtl
o Terrain.001
v -0.219133 0.666448 0.049122
v -0.101608 0.993934 5.098464
v -0.112793 1.557086 10.143253
v 0.075651 1.946764 15.212598
v -4.061710 4.885054 19.644924
v -0.122469 3.434775 24.413057
v 0.124936 2.959112 30.293114
v 0.112453 2.108568 35.682747
v -0.236474 0.672415 49.503922
v -2.313942 5.659372 35.664917
v -0.120359 0.619136 42.240578
v -6.872620 0.911955 50.093781
v -3.797184 6.416097 28.572199
v -6.331112 7.433241 45.642658
v -5.158712 8.589646 39.729511
v -4.599420 5.128938 7.572951
v -6.522033 6.330276 26.142345
v -7.242706 5.937879 13.062443
v -8.083980 6.032063 21.233643
v -7.859807 7.625372 32.935558
v -7.469123 2.259776 3.430962
v -8.477618 5.465488 8.499204
v -6.431864 9.120863 35.553947
v -12.170741 0.680316 0.025089
v -6.930757 9.459768 42.209045
v -10.497455 5.251079 28.574038
v -10.733167 3.366356 16.322186
v -11.551584 6.948081 44.784832
v -11.270619 5.815963 24.535145
v -12.620865 5.754029 38.449455
v -12.561608 2.347460 7.088717
v -12.807636 6.055777 33.652775
v -16.255249 1.293238 21.098774
v -16.466728 2.900235 50.158215
v -15.416898 2.797494 25.278675
v -14.202404 0.995632 14.849358
v -17.003881 4.151213 30.622929
v -16.443302 8.116670 44.044392
v -17.394857 0.412363 4.399292
v -16.379131 4.779914 36.558315
v -18.591213 0.444221 13.825643
v -20.848745 0.911538 25.325253
v -21.088482 5.885729 46.892941
v -22.268747 2.755702 34.212975
v -22.809294 0.180517 17.821035
v -21.862522 1.889918 29.444374
v -22.181314 7.007365 43.117123
v -25.280060 -0.016602 0.078001
v -21.186487 6.117180 39.506458
v -24.421949 -0.116929 13.252228
v -24.921038 2.951943 50.166824
v -22.110758 -0.038280 7.190941
v -25.647545 5.355150 39.145824
v -26.959761 -0.023651 5.794384
v -25.891150 0.781576 25.800451
v -27.561876 0.378170 31.810160
v -29.766142 0.062849 15.425091
v -29.129725 0.074495 10.009863
v -27.614048 5.500189 43.013077
v -27.536304 -0.127093 20.228100
v -33.866577 0.300549 36.069336
v -32.907284 2.620172 50.154072
v -30.705009 4.150192 44.835533
v -30.684372 0.167642 0.015907
v -33.381046 0.010399 5.207361
v -33.642315 -0.082020 26.506222
v -33.358528 0.084904 31.853823
v -35.645092 1.262404 40.102604
v -35.365910 -0.053508 20.845428
v -34.618835 0.069153 10.455373
v -34.860176 2.843832 44.845375
v -35.888168 -0.047625 16.014008
v -39.667820 0.127175 0.006802
v -39.371273 0.104841 30.316950
v -39.531219 0.024343 5.157219
v -41.210140 0.055828 11.936381
v -38.495258 1.233514 50.092766
v -41.081551 0.000382 23.589380
v -40.871410 -0.046035 36.624184
v -43.593971 -0.007950 7.331558
v -43.682545 -0.038642 17.142504
v -41.559723 2.788130 42.526005
v -46.159691 0.028540 36.228550
v -45.796429 0.138105 24.850914
v -45.735630 1.905845 43.675789
v -43.957832 1.413894 47.087421
v -45.669083 -0.180858 31.324579
v -50.012363 -0.466943 49.873337
v -46.262344 0.073534 3.875211
v -49.907299 0.037364 20.340006
v -49.969570 0.158462 0.036924
v -49.967918 -0.064933 10.229195
v -49.970402 -0.016959 27.738754
v -49.991158 0.088523 14.492343
v -49.981152 0.104582 38.863976
vt 0.306679 0.005579
vt 0.393452 0.077143
vt 0.484371 0.002073
vt 0.603895 0.001060
vt 0.714234 0.050406
vt 0.710245 0.001280
vt 0.825168 0.009579
vt 0.569871 0.077038
vt 0.914461 0.136343
vt 0.987943 0.001497
vt 0.086944 0.008814
vt 0.152596 0.093529
vt 0.197450 0.009773
vt 0.791354 0.104190
vt 0.000884 0.004286
vt 0.072401 0.145938
vt 0.261032 0.143403
vt 0.993314 0.129568
vt 0.711767 0.126413
vt 0.657684 0.154639
vt 0.843541 0.142694
vt 0.423412 0.158169
vt 0.524374 0.133971
vt 0.169833 0.165147
vt 0.569997 0.211482
vt 0.008336 0.242301
vt 0.893197 0.232981
vt 0.323046 0.212321
vt 0.769616 0.251790
vt 0.141399 0.252504
vt 0.489348 0.225898
vt 0.673157 0.256643
vt 0.417850 0.325089
vt 0.996809 0.333172
vt 0.296560 0.286150
vt 0.615496 0.341783
vt 0.506747 0.310443
vt 0.875884 0.330529
vt 0.729928 0.335414
vt 0.089732 0.350363
vt 0.273760 0.369351
vt 0.506161 0.414580
vt 0.937057 0.426062
vt 0.354456 0.456739
vt 0.589844 0.436233
vt 0.143610 0.440320
vt 0.009730 0.493810
vt 0.680847 0.443430
vt 0.790986 0.421895
vt 0.864402 0.442071
vt 0.265383 0.489570
vt 0.997407 0.502055
vt 0.516937 0.518787
vt 0.406705 0.552883
vt 0.631924 0.555129
vt 0.788415 0.510488
vt 0.115504 0.537996
vt 0.857978 0.546467
vt 0.200659 0.582228
vt 0.308951 0.595135
vt 0.724058 0.677671
vt 0.894662 0.610102
vt 0.006156 0.617536
vt 0.997443 0.653921
vt 0.103646 0.667935
vt 0.419523 0.708415
vt 0.527126 0.671186
vt 0.635746 0.667904
vt 0.802189 0.715583
vt 0.206943 0.690329
vt 0.894528 0.695024
vt 0.321455 0.721733
vt 0.017442 0.785105
vt 0.608410 0.785568
vt 0.996155 0.772442
vt 0.101194 0.786914
vt 0.470329 0.820631
vt 0.237487 0.823810
vt 0.732128 0.818397
vt 0.853982 0.830986
vt 0.145746 0.872427
vt 0.342833 0.872135
vt 0.939895 0.877916
vt 0.499211 0.915492
vt 0.629065 0.912340
vt 0.877838 0.914139
vt 0.076151 0.924879
vt 0.726083 0.924152
vt 0.996084 0.997908
vt 0.425959 0.976179
vt 0.187685 0.968591
vt 0.001786 0.998849
vt 0.567155 0.990137
vt 0.783046 0.994988
vt 0.295210 0.995046
vn 0.4775 0.8689 -0.1302
vn 0.8220 0.5622 0.0906
vn 0.8152 0.5578 0.1556
vn 0.6753 0.7349 -0.0628
vn 0.7408 0.6717 0.0069
vn 0.6493 0.7560 -0.0829
vn 0.6525 0.7571 0.0338
vn 0.8105 0.5631 0.1613
vn 0.5061 0.8475 -0.1603
vn 0.1838 0.9806 -0.0679
vn 0.4962 0.8641 -0.0849
vn 0.0935 0.5560 0.8259
vn 0.5615 0.8136 0.1505
vn 0.6434 0.7637 -0.0531
vn 0.2703 0.6936 -0.6677
vn 0.4995 0.8600 -0.1038
vn 0.7749 0.5735 0.2658
vn -0.1779 0.8931 -0.4131
vn 0.6419 0.7604 -0.0990
vn 0.7002 0.6616 0.2682
vn 0.2070 0.9632 -0.1713
vn 0.1154 0.9797 -0.1640
vn 0.0578 0.9913 -0.1183
vn 0.0316 0.9970 -0.0706
vn -0.3913 0.8868 -0.2461
vn 0.0019 0.9062 -0.4229
vn -0.0566 0.8387 -0.5417
vn 0.4245 0.9053 -0.0143
vn -0.1847 0.5645 0.8045
vn -0.3563 0.8804 0.3130
vn 0.0505 0.8661 -0.4973
vn -0.1636 0.8368 0.5225
vn -0.5055 0.8590 -0.0816
vn -0.3802 0.7456 -0.5473
vn -0.0978 0.9948 -0.0293
vn -0.1619 0.9726 0.1670
vn -0.5085 0.8577 -0.0758
vn -0.6236 0.7768 0.0883
vn -0.2922 0.9537 0.0714
vn -0.5339 0.8260 -0.1806
vn -0.1523 0.9600 -0.2350
vn -0.3274 0.8989 -0.2913
vn -0.5781 0.8156 0.0245
vn -0.4894 0.8495 -0.1971
vn -0.4573 0.7997 -0.3891
vn 0.1531 0.7169 0.6801
vn -0.4926 0.8464 -0.2021
vn -0.2393 0.9363 -0.2572
vn -0.5705 0.8210 0.0224
vn -0.5996 0.7838 -0.1618
vn -0.5486 0.8072 0.2179
vn 0.2581 0.9405 -0.2208
vn 0.0831 0.7579 0.6470
vn -0.2837 0.9563 0.0712
vn -0.2454 0.9404 -0.2355
vn -0.4054 0.9112 0.0730
vn -0.1054 0.9911 -0.0818
vn -0.2519 0.9177 -0.3073
vn -0.3775 0.9242 -0.0582
vn -0.1204 0.9926 -0.0186
vn -0.3132 0.8943 -0.3195
vn -0.0317 0.9128 -0.4071
vn 0.0327 0.7603 0.6488
vn -0.1312 0.9886 -0.0733
vn -0.3430 0.8914 -0.2962
vn -0.1049 0.9943 -0.0167
vn -0.0531 0.9986 -0.0022
vn -0.2995 0.9516 -0.0693
vn 0.0044 0.9134 -0.4071
vn -0.1399 0.9517 -0.2732
vn -0.3184 0.9105 -0.2638
vn -0.0839 0.8489 -0.5219
vn -0.2310 0.9124 0.3379
vn -0.0936 0.9954 -0.0228
vn -0.3742 0.9063 -0.1964
vn 0.0052 0.7417 0.6707
vn -0.1377 0.9886 -0.0603
vn -0.0478 0.9691 -0.2419
vn -0.1005 0.9924 -0.0704
vn -0.0926 0.9952 -0.0321
vn -0.0739 0.9966 0.0360
vn -0.0395 0.9880 -0.1494
vn -0.3265 0.9247 -0.1957
vn -0.1405 0.9516 -0.2733
vn 0.0025 1.0000 0.0020
vn -0.1032 0.8491 -0.5181
vn -0.2572 0.9035 0.3428
vn -0.2592 0.9658 -0.0072
vn 0.0085 0.9998 -0.0189
vn 0.0063 0.9977 -0.0672
vn -0.2605 0.9507 -0.1681
vn -0.2993 0.8576 0.4182
vn 0.0251 0.9994 0.0225
vn -0.1339 0.8360 -0.5322
vn -0.0363 0.9978 0.0563
vn 0.0362 0.9993 0.0064
vn -0.3278 0.8193 -0.4703
vn -0.1683 0.9069 0.3864
vn 0.0339 0.9994 0.0112
vn -0.0405 0.9646 0.2607
vn 0.0071 0.9998 -0.0196
vn -0.1073 0.9935 0.0377
vn -0.1073 0.9935 0.0369
vn -0.4359 0.8634 -0.2540
vn -0.0033 0.9871 -0.1600
vn -0.0509 0.9971 -0.0571
vn 0.0024 0.9995 0.0315
vn -0.0507 0.9983 -0.0285
vn -0.3324 0.8738 -0.3550
vn -0.4406 0.8936 -0.0853
vn -0.0019 0.9999 -0.0116
vn -0.2963 0.9435 0.1487
vn -0.0008 1.0000 0.0021
vn -0.0136 0.9989 0.0458
vn -0.0164 0.9997 0.0173
vn 0.0094 1.0000 0.0002
vn -0.2902 0.9212 -0.2591
vn -0.0045 0.9996 0.0279
vn 0.0114 0.9994 -0.0318
vn -0.2402 0.9621 0.1289
vn 0.0159 0.9987 -0.0492
vn 0.0021 0.9998 0.0199
vn 0.0103 0.9999 0.0019
vn 0.0024 0.9999 -0.0106
vn -0.0032 1.0000 -0.0054
vn -0.0682 0.9632 -0.2598
vn 0.0028 0.9998 0.0217
vn 0.1066 0.9378 -0.3303
vn 0.0191 0.9996 -0.0204
vn -0.0484 0.9987 0.0124
vn -0.0894 0.9679 0.2351
vn -0.0120 0.9999 -0.0076
vn 0.0013 1.0000 0.0011
vn 0.0041 0.9998 0.0201
vn 0.0580 0.9026 -0.4267
vn 0.0055 1.0000 -0.0083
vn -0.0994 0.9660 0.2387
vn 0.0234 0.9995 -0.0215
vn -0.0431 0.9990 0.0136
vn -0.1449 0.9658 0.2148
vn 0.0035 0.9998 0.0199
vn 0.0033 0.9998 0.0210
vn -0.0373 0.9981 0.0499
vn 0.0448 0.9026 -0.4282
vn -0.1444 0.9368 0.3187
vn 0.0172 0.9990 -0.0409
vn 0.0075 0.9999 -0.0091
vn -0.0159 0.9998 0.0106
vn -0.0123 0.9999 -0.0075
vn 0.0187 0.9991 -0.0393
vn 0.0031 0.9998 0.0191
vn -0.0030 0.9988 0.0493
vn -0.2426 0.9592 -0.1450
vn 0.0352 0.9987 -0.0358
vn 0.0166 0.9998 0.0085
vn -0.1769 0.9424 -0.2837
vn 0.0013 0.9997 0.0226
vn -0.1879 0.9536 0.2354
vn -0.0322 0.9995 0.0071
vn -0.0102 0.9990 -0.0437
vn 0.0471 0.9988 -0.0109
vn 0.0002 0.9998 0.0219
vn -0.4334 0.9000 0.0455
usemtl Default_OBJ.001
s off
f 4/1/1 5/2/1 6/3/1
f 7/4/2 10/5/2 8/6/2
f 8/6/3 10/5/3 11/7/3
f 7/4/4 13/8/4 10/5/4
f 11/7/5 14/9/5 9/10/5
f 2/11/6 16/12/6 3/13/6
f 13/8/7 7/4/7 6/3/7
f 10/5/8 15/14/8 11/7/8
f 5/2/9 13/8/9 6/3/9
f 1/15/10 21/16/10 2/11/10
f 3/13/11 18/17/11 4/1/11
f 9/10/12 14/9/12 12/18/12
f 16/12/13 18/17/13 3/13/13
f 13/8/14 23/19/14 10/5/14
f 2/11/15 21/16/15 16/12/15
f 18/17/16 5/2/16 4/1/16
f 11/7/17 15/14/17 14/9/17
f 13/8/18 20/20/18 23/19/18
f 10/5/19 23/19/19 15/14/19
f 15/14/20 25/21/20 14/9/20
f 19/22/21 13/8/21 5/2/21
f 17/23/22 20/20/22 13/8/22
f 16/12/23 22/24/23 18/17/23
f 19/22/24 17/23/24 13/8/24
f 17/23/25 26/25/25 20/20/25
f 1/15/26 24/26/26 21/16/26
f 21/16/27 22/24/27 16/12/27
f 23/19/28 25/21/28 15/14/28
f 14/9/29 28/27/29 12/18/29
f 18/17/30 27/28/30 5/2/30
f 27/28/31 19/22/31 5/2/31
f 25/21/32 28/27/32 14/9/32
f 23/19/33 30/29/33 25/21/33
f 21/16/34 31/30/34 22/24/34
f 19/22/35 29/31/35 17/23/35
f 17/23/36 29/31/36 26/25/36
f 30/29/37 28/27/37 25/21/37
f 22/24/38 31/30/38 18/17/38
f 32/32/39 30/29/39 20/20/39
f 20/20/40 30/29/40 23/19/40
f 24/26/41 31/30/41 21/16/41
f 26/25/42 32/32/42 20/20/42
f 18/17/43 31/30/43 27/28/43
f 27/28/44 33/33/44 19/22/44
f 19/22/45 33/33/45 29/31/45
f 28/27/46 34/34/46 12/18/46
f 36/35/47 33/33/47 27/28/47
f 26/25/48 37/36/48 32/32/48
f 31/30/49 36/35/49 27/28/49
f 33/33/50 35/37/50 29/31/50
f 35/37/51 26/25/51 29/31/51
f 30/29/52 38/38/52 28/27/52
f 28/27/53 38/38/53 34/34/53
f 32/32/54 40/39/54 30/29/54
f 24/26/55 39/40/55 31/30/55
f 31/30/56 39/40/56 36/35/56
f 36/35/57 41/41/57 33/33/57
f 35/37/58 37/36/58 26/25/58
f 32/32/59 37/36/59 40/39/59
f 39/40/60 41/41/60 36/35/60
f 35/37/61 42/42/61 37/36/61
f 40/39/62 38/38/62 30/29/62
f 38/38/63 43/43/63 34/34/63
f 41/41/64 45/44/64 33/33/64
f 42/42/65 46/45/65 37/36/65
f 39/40/66 52/46/66 41/41/66
f 24/26/67 48/47/67 39/40/67
f 37/36/68 44/48/68 40/39/68
f 40/39/69 49/49/69 38/38/69
f 38/38/70 49/49/70 47/50/70
f 33/33/71 42/42/71 35/37/71
f 44/48/72 49/49/72 40/39/72
f 47/50/73 43/43/73 38/38/73
f 52/46/74 50/51/74 41/41/74
f 46/45/75 44/48/75 37/36/75
f 43/43/76 51/52/76 34/34/76
f 45/44/77 42/42/77 33/33/77
f 42/42/78 55/53/78 46/45/78
f 45/44/79 60/54/79 42/42/79
f 50/51/80 45/44/80 41/41/80
f 39/40/81 48/47/81 52/46/81
f 60/54/82 55/53/82 42/42/82
f 46/45/83 56/55/83 44/48/83
f 49/49/84 53/56/84 47/50/84
f 48/47/85 54/57/85 52/46/85
f 44/48/86 53/56/86 49/49/86
f 47/50/87 59/58/87 43/43/87
f 55/53/88 56/55/88 46/45/88
f 54/57/89 58/59/89 52/46/89
f 50/51/90 57/60/90 45/44/90
f 53/56/91 59/58/91 47/50/91
f 59/58/92 51/52/92 43/43/92
f 58/59/93 50/51/93 52/46/93
f 44/48/94 56/55/94 53/56/94
f 45/44/95 57/60/95 60/54/95
f 50/51/96 58/59/96 57/60/96
f 56/55/97 61/61/97 53/56/97
f 59/58/98 63/62/98 51/52/98
f 48/47/99 64/63/99 54/57/99
f 51/52/100 63/62/100 62/64/100
f 54/57/101 65/65/101 58/59/101
f 55/53/102 69/66/102 66/67/102
f 66/67/103 56/55/103 55/53/103
f 53/56/104 61/61/104 59/58/104
f 60/54/105 69/66/105 55/53/105
f 56/55/106 67/68/106 61/61/106
f 54/57/107 64/63/107 65/65/107
f 66/67/108 67/68/108 56/55/108
f 61/61/109 68/69/109 59/58/109
f 68/69/110 63/62/110 59/58/110
f 65/65/111 70/70/111 58/59/111
f 63/62/112 71/71/112 62/64/112
f 58/59/113 70/70/113 57/60/113
f 57/60/114 72/72/114 60/54/114
f 70/70/115 72/72/115 57/60/115
f 60/54/116 72/72/116 69/66/116
f 68/69/117 71/71/117 63/62/117
f 64/63/118 73/73/118 65/65/118
f 66/67/119 74/74/119 67/68/119
f 71/71/120 77/75/120 62/64/120
f 67/68/121 74/74/121 61/61/121
f 73/73/122 75/76/122 65/65/122
f 69/66/123 78/77/123 66/67/123
f 65/65/124 75/76/124 70/70/124
f 70/70/125 75/76/125 76/78/125
f 79/79/126 68/69/126 61/61/126
f 70/70/127 76/78/127 72/72/127
f 68/69/128 82/80/128 71/71/128
f 66/67/129 78/77/129 74/74/129
f 74/74/130 79/79/130 61/61/130
f 71/71/131 82/80/131 77/75/131
f 75/76/132 80/81/132 76/78/132
f 72/72/133 81/82/133 69/66/133
f 72/72/134 76/78/134 81/82/134
f 79/79/135 82/80/135 68/69/135
f 69/66/136 81/82/136 78/77/136
f 82/80/137 86/83/137 77/75/137
f 78/77/138 84/84/138 74/74/138
f 74/74/139 87/85/139 79/79/139
f 82/80/140 85/86/140 86/83/140
f 75/76/141 73/73/141 89/87/141
f 75/76/142 89/87/142 80/81/142
f 84/84/143 87/85/143 74/74/143
f 79/79/144 83/88/144 82/80/144
f 86/83/145 88/89/145 77/75/145
f 79/79/146 87/85/146 83/88/146
f 81/82/147 90/90/147 78/77/147
f 76/78/148 92/91/148 81/82/148
f 80/81/149 92/91/149 76/78/149
f 78/77/150 90/90/150 84/84/150
f 73/73/151 91/92/151 89/87/151
f 84/84/152 93/93/152 87/85/152
f 82/80/153 95/94/153 85/86/153
f 92/91/154 94/95/154 81/82/154
f 81/82/155 94/95/155 90/90/155
f 83/88/156 95/94/156 82/80/156
f 89/87/157 92/91/157 80/81/157
f 85/86/158 88/89/158 86/83/158
f 90/90/159 93/93/159 84/84/159
f 87/85/160 95/94/160 83/88/160
f 93/93/161 95/94/161 87/85/161
f 91/92/162 92/91/162 89/87/162
f 85/86/163 95/94/163 88/89/163
